<?xml version="1.0" encoding="UTF-8" standalone="no"?>
<!DOCTYPE svg PUBLIC "-//W3C//DTD SVG 1.1//EN" "http://www.w3.org/Graphics/SVG/1.1/DTD/svg11.dtd">
<svg width="100%" height="100%" viewBox="0 0 48 48" version="1.1" xmlns="http://www.w3.org/2000/svg" xmlns:xlink="http://www.w3.org/1999/xlink" xml:space="preserve" xmlns:serif="http://www.serif.com/" style="fill-rule:evenodd;clip-rule:evenodd;stroke-linejoin:round;stroke-miterlimit:2;">
    <g transform="matrix(1,0,0,1,-146,-214)">
        <g id="DesignHere">
            <path d="M179,232L176,232L176,224C176,223.766 175.918,223.54 175.768,223.36L170.768,217.36C170.578,217.132 170.297,217 170,217C169.703,217 169.422,217.132 169.232,217.36L164.232,223.36C164.082,223.54 164,223.766 164,224L164,232L161,232L161,224C161,223.766 160.918,223.54 160.768,223.36L155.768,217.36C155.578,217.132 155.297,217 155,217C154.703,217 154.422,217.132 154.232,217.36L149.232,223.36C149.082,223.54 149,223.766 149,224L149,258C149,258.552 149.448,259 150,259L160,259C160.552,259 161,258.552 161,258L161,254L164,254L164,258C164,258.552 164.448,259 165,259L175,259C175.552,259 176,258.552 176,258L176,254L179,254L179,258C179,258.552 179.448,259 180,259L190,259C190.552,259 191,258.552 191,258L191,224C191,223.766 190.918,223.54 190.768,223.36L185.768,217.36C185.578,217.132 185.297,217 185,217C184.703,217 184.422,217.132 184.232,217.36L179.232,223.36C179.082,223.54 179,223.766 179,224L179,232ZM159,224.362L159,257C159,257 151,257 151,257C151,257 151,224.362 151,224.362C151,224.362 155,219.562 155,219.562L159,224.362ZM174,257L174,224.362L170,219.562C170,219.562 166,224.362 166,224.362L166,233L166,233L166,239L166,239L166,246.999L166,247L166,253L166,253.001L166,257C166,257 174,257 174,257ZM181,253.001L181,257C181,257 189,257 189,257L189,224.362L185,219.562C185,219.562 181,224.362 181,224.362L181,233L181,233L181,239L181,239L181,246.999L181,247L181,253L181,253.001ZM161,252L164,252L164,248L161,248L161,252ZM176,248L179,248L179,252L176,252L176,248ZM176,240L176,246L179,246L179,240L176,240ZM164,240L161,240L161,246L164,246L164,240ZM176,234L179,234L179,238L176,238L176,234ZM161,238L164,238L164,234L161,234L161,238Z"/>
        </g>
    </g>
</svg>
