<svg id="Layer_1" data-name="Layer 1" xmlns="http://www.w3.org/2000/svg" viewBox="0 0 24 24"><path d="M9.22852,11.58887,7.70117,20.75293A1.50024,1.50024,0,0,0,9.18066,22.5H20.81934a1.49954,1.49954,0,0,0,1.47949-1.74609l-1.52735-9.165A2.49157,2.49157,0,0,0,18.30566,9.5H11.69434A2.49233,2.49233,0,0,0,9.22852,11.58887Zm10.55664.16406,1.52734,9.165a.4994.4994,0,0,1-.49316.582H9.18066a.4994.4994,0,0,1-.49316-.582l1.52734-9.165A1.49542,1.49542,0,0,1,11.69434,10.5h6.61132A1.49542,1.49542,0,0,1,19.78516,11.75293ZM12,12.5a.49971.49971,0,0,1,.5.5,2.5,2.5,0,0,0,5,0,.5.5,0,0,1,1,0,3.5,3.5,0,0,1-7,0A.49971.49971,0,0,1,12,12.5Zm-6,6h.556l.16669-1H6A3.50424,3.50424,0,0,1,2.5,14V9A1.50164,1.50164,0,0,1,4,7.5h9a1.491,1.491,0,0,1,1.10986.5h1.17841A2.501,2.501,0,0,0,13,6.5H12V5A3.5,3.5,0,0,0,5,5V6.5H4A2.50263,2.50263,0,0,0,1.5,9v5A4.50491,4.50491,0,0,0,6,18.5ZM6,5a2.5,2.5,0,0,1,5,0V6.5H6Z"/></svg>