<?xml version="1.0" encoding="utf-8"?>
<!-- Generator: Adobe Illustrator 23.0.3, SVG Export Plug-In . SVG Version: 6.00 Build 0)  -->
<svg version="1.1" id="Layer_1" xmlns="http://www.w3.org/2000/svg" xmlns:xlink="http://www.w3.org/1999/xlink" x="0px" y="0px"
	 viewBox="0 0 32 32" style="enable-background:new 0 0 32 32;" xml:space="preserve">
<g>
	<g>
		<path d="M31,32H1c-0.5522461,0-1-0.4472656-1-1s0.4477539-1,1-1h30c0.5522461,0,1,0.4472656,1,1S31.5522461,32,31,32z"/>
	</g>
	<g>
		<path d="M23.2128906,32H8.7871094c-0.5522461,0-1-0.4472656-1-1V1c0-0.5522461,0.4477539-1,1-1h14.4257813
			c0.5522461,0,1,0.4477539,1,1v30C24.2128906,31.5527344,23.7651367,32,23.2128906,32z M9.7871094,30h12.4257813V2H9.7871094V30z"
			/>
	</g>
	<g>
		<path d="M8.7871094,32H3c-0.5522461,0-1-0.4472656-1-1V8.2128906c0-0.5522461,0.4477539-1,1-1h5.7871094
			c0.5522461,0,1,0.4477539,1,1V31C9.7871094,31.5527344,9.3393555,32,8.7871094,32z M4,30h3.7871094V9.2128906H4V30z"/>
	</g>
	<g>
		<path d="M29,32h-5.7871094c-0.5522461,0-1-0.4472656-1-1V8.2128906c0-0.5522461,0.4477539-1,1-1H29c0.5522461,0,1,0.4477539,1,1
			V31C30,31.5527344,29.5522461,32,29,32z M24.2128906,30H28V9.2128906h-3.7871094V30z"/>
	</g>
	<g>
		<g>
			<path d="M19,9.2128906h-6c-0.5522461,0-1-0.4477539-1-1s0.4477539-1,1-1h6c0.5522461,0,1,0.4477539,1,1
				S19.5522461,9.2128906,19,9.2128906z"/>
		</g>
		<g>
			<path d="M19,14.4042969h-6c-0.5522461,0-1-0.4477539-1-1s0.4477539-1,1-1h6c0.5522461,0,1,0.4477539,1,1
				S19.5522461,14.4042969,19,14.4042969z"/>
		</g>
		<g>
			<path d="M19,19.5957031h-6c-0.5522461,0-1-0.4472656-1-1s0.4477539-1,1-1h6c0.5522461,0,1,0.4472656,1,1
				S19.5522461,19.5957031,19,19.5957031z"/>
		</g>
		<g>
			<path d="M19,24.7871094h-6c-0.5522461,0-1-0.4472656-1-1s0.4477539-1,1-1h6c0.5522461,0,1,0.4472656,1,1
				S19.5522461,24.7871094,19,24.7871094z"/>
		</g>
	</g>
</g>
</svg>
