<?xml version="1.0" encoding="UTF-8"?>
<svg id="Layer_2" data-name="Layer 2" xmlns="http://www.w3.org/2000/svg" viewBox="0 0 28 28">
  <defs>
    <style>
      .cls-1 {
        stroke-width: 0px;
      }
    </style>
  </defs>
  <path class="cls-1" d="m26.4,14.2l-3-4c-.095-.126-.243-.2-.4-.2h-6.5v-4c0-.811-.659-1.47-1.465-1.47l-3.03-.03h-.005c-.273,0-.497.221-.5.495-.003.276.219.502.495.505l3.035.03c.259,0,.47.211.47.47v12h-5.058c-.631-.617-1.492-1-2.442-1s-1.81.383-2.442,1h-3.058v-7c0-.276-.224-.5-.5-.5s-.5.224-.5.5v8.53c0,.811.659,1.47,1.47,1.47h1.581c.245,1.692,1.691,3,3.449,3s3.204-1.308,3.449-3h6.101c.245,1.692,1.691,3,3.449,3s3.204-1.308,3.449-3h1.551c.276,0,.5-.224.5-.5v-6c0-.108-.035-.213-.1-.3Zm-1.4-.2h-3.5v-3h1.25l2.25,3ZM2.5,19.53v-.53h2.351c-.149.311-.249.646-.301,1h-1.581c-.259,0-.47-.211-.47-.47Zm5.5,3.47c-1.379,0-2.5-1.122-2.5-2.5s1.121-2.5,2.5-2.5,2.5,1.122,2.5,2.5-1.121,2.5-2.5,2.5Zm3.449-3c-.051-.354-.151-.689-.301-1h4.351v1h-4.051Zm9.551,3c-1.379,0-2.5-1.122-2.5-2.5s1.121-2.5,2.5-2.5,2.5,1.122,2.5,2.5-1.121,2.5-2.5,2.5Zm3.449-3c-.245-1.692-1.691-3-3.449-3s-3.204,1.308-3.449,3h-1.051v-9h4v3.5c0,.276.224.5.5.5h4.5v5h-1.051Z"/>
  <path class="cls-1" d="m2,5.5h7c.276,0,.5-.224.5-.5s-.224-.5-.5-.5H2c-.276,0-.5.224-.5.5s.224.5.5.5Z"/>
  <path class="cls-1" d="m2.5,7c0,.276.224.5.5.5h8c.276,0,.5-.224.5-.5s-.224-.5-.5-.5H3c-.276,0-.5.224-.5.5Z"/>
  <path class="cls-1" d="m2,9.5h7c.276,0,.5-.224.5-.5s-.224-.5-.5-.5H2c-.276,0-.5.224-.5.5s.224.5.5.5Z"/>
  <path class="cls-1" d="m4.5,11c0,.276.224.5.5.5h7c.276,0,.5-.224.5-.5s-.224-.5-.5-.5h-7c-.276,0-.5.224-.5.5Z"/>
</svg>