<?xml version="1.0" encoding="utf-8"?>
<!-- Generator: Adobe Illustrator 25.4.1, SVG Export Plug-In . SVG Version: 6.00 Build 0)  -->
<svg version="1.1" id="Layer_1" xmlns="http://www.w3.org/2000/svg" xmlns:xlink="http://www.w3.org/1999/xlink" x="0px" y="0px"
	 viewBox="0 0 96 96" style="enable-background:new 0 0 96 96;" xml:space="preserve">
<style type="text/css">
	.st0{fill:#1D1D1B;}
</style>
<g>
	<path class="st0" d="M84,12H72c-1.1,0-2,0.9-2,2c0,0,0,0,0,0v18h-8V22c0-1.1-0.9-2-2-2c-0.4,0-0.9,0.1-1.2,0.4L46,30v-8
		c0-1.1-0.9-2-2-2c-0.4,0-0.9,0.1-1.2,0.4L30,30v-8c0-1.1-0.9-2-2-2c-0.4,0-0.9,0.1-1.2,0.4l-16,12c-0.5,0.4-0.8,1-0.8,1.6v48
		c0,1.1,0.9,2,2,2c0,0,0,0,0,0h72c1.1,0,2-0.9,2-2c0,0,0,0,0,0V14C86,12.9,85.1,12,84,12C84,12,84,12,84,12z M82,80H14V35l12-9v8
		c0,1.1,0.9,2,2,2c0.4,0,0.9-0.1,1.2-0.4L42,26v8c0,1.1,0.9,2,2,2c0.4,0,0.9-0.1,1.2-0.4L58,26v8c0,1.1,0.9,2,2,2c0,0,0,0,0,0h12
		c1.1,0,2-0.9,2-2c0,0,0,0,0,0V16h8V80z"/>
	<path class="st0" d="M32,44h-8c-1.1,0-2,0.9-2,2s0.9,2,2,2h8c1.1,0,2-0.9,2-2S33.1,44,32,44z"/>
	<path class="st0" d="M52,44h-8c-1.1,0-2,0.9-2,2s0.9,2,2,2h8c1.1,0,2-0.9,2-2S53.1,44,52,44z"/>
	<path class="st0" d="M32,56h-8c-1.1,0-2,0.9-2,2s0.9,2,2,2h8c1.1,0,2-0.9,2-2S33.1,56,32,56z"/>
	<path class="st0" d="M52,56h-8c-1.1,0-2,0.9-2,2s0.9,2,2,2h8c1.1,0,2-0.9,2-2S53.1,56,52,56z"/>
	<path class="st0" d="M32,68h-8c-1.1,0-2,0.9-2,2s0.9,2,2,2h8c1.1,0,2-0.9,2-2S33.1,68,32,68z"/>
	<path class="st0" d="M52,68h-8c-1.1,0-2,0.9-2,2s0.9,2,2,2h8c1.1,0,2-0.9,2-2S53.1,68,52,68z"/>
	<path class="st0" d="M72,44h-8c-1.1,0-2,0.9-2,2s0.9,2,2,2h8c1.1,0,2-0.9,2-2S73.1,44,72,44z"/>
	<path class="st0" d="M72,56h-8c-1.1,0-2,0.9-2,2s0.9,2,2,2h8c1.1,0,2-0.9,2-2S73.1,56,72,56z"/>
	<path class="st0" d="M72,68h-8c-1.1,0-2,0.9-2,2s0.9,2,2,2h8c1.1,0,2-0.9,2-2S73.1,68,72,68z"/>
</g>
</svg>
