<?xml version="1.0" encoding="utf-8"?>
<!-- Generator: Adobe Illustrator 25.4.1, SVG Export Plug-In . SVG Version: 6.00 Build 0)  -->
<svg version="1.1" id="Layer_1" xmlns="http://www.w3.org/2000/svg" xmlns:xlink="http://www.w3.org/1999/xlink" x="0px" y="0px"
	 viewBox="0 0 96 96" style="enable-background:new 0 0 96 96;" xml:space="preserve">
<style type="text/css">
	.st0{fill:#1D1D1B;}
</style>
<g>
	<path class="st0" d="M86,52H68V38c0-1.1-0.9-2-2-2c0,0,0,0,0,0h-4V22c0-1.1-0.9-2-2-2c-0.3,0-0.6,0.1-0.9,0.2l-8,4
		c-0.7,0.3-1.1,1-1.1,1.8v10h-6V22c0-1.1-0.9-2-2-2c-0.3,0-0.6,0.1-0.9,0.2l-8,4c-0.7,0.3-1.1,1-1.1,1.8v10h-6V22c0-1.1-0.9-2-2-2
		c-0.3,0-0.6,0.1-0.9,0.2l-8,4c-0.7,0.3-1.1,1-1.1,1.8v10h-4c-1.1,0-2,0.9-2,2c0,0,0,0,0,0v48c0,1.1,0.9,2,2,2c0,0,0,0,0,0h76
		c1.1,0,2-0.9,2-2c0,0,0,0,0,0V54C88,52.9,87.1,52,86,52C86,52,86,52,86,52z M54,27.2l4-2V36h-4V27.2z M36,27.2l4-2V36h-4V27.2z
		 M18,27.2l4-2V36h-4V27.2z M12,40h52v44H52V62c0-1.1-0.9-2-2-2c0,0,0,0,0,0H26c-1.1,0-2,0.9-2,2c0,0,0,0,0,0v22H12V40z M28,84V64
		h20v20H28z M84,84H68V56h16V84z"/>
	<path class="st0" d="M74,64h4c1.1,0,2-0.9,2-2s-0.9-2-2-2h-4c-1.1,0-2,0.9-2,2S72.9,64,74,64z"/>
	<path class="st0" d="M74,72h4c1.1,0,2-0.9,2-2s-0.9-2-2-2h-4c-1.1,0-2,0.9-2,2S72.9,72,74,72z"/>
	<path class="st0" d="M36,18c1.1,0,2-0.9,2-2c0,0,0,0,0,0c0-0.4,0-0.6,1.6-1.1c1.5-0.5,4.4-1.5,4.4-4.9c0-1.1-0.9-2-2-2s-2,0.9-2,2
		c0,0.4,0,0.6-1.6,1.1C36.8,11.6,34,12.6,34,16C34,17.1,34.9,18,36,18C36,18,36,18,36,18z"/>
	<path class="st0" d="M54,18c1.1,0,2-0.9,2-2c0,0,0,0,0,0c0-0.4,0-0.6,1.6-1.1c1.5-0.5,4.4-1.5,4.4-4.9c0-1.1-0.9-2-2-2s-2,0.9-2,2
		c0,0.4,0,0.6-1.6,1.1C54.8,11.6,52,12.6,52,16C52,17.1,52.9,18,54,18C54,18,54,18,54,18z"/>
	<path class="st0" d="M18,18c1.1,0,2-0.9,2-2c0,0,0,0,0,0c0-0.4,0-0.6,1.6-1.1c1.5-0.5,4.4-1.5,4.4-4.9c0-1.1-0.9-2-2-2s-2,0.9-2,2
		c0,0.4,0,0.6-1.6,1.1C18.8,11.6,16,12.6,16,16C16,17.1,16.9,18,18,18C18,18,18,18,18,18z"/>
</g>
</svg>
