<?xml version="1.0" encoding="UTF-8"?>
<svg id="Layer_1" xmlns="http://www.w3.org/2000/svg" viewBox="0 0 1000 1000">
  <defs>
    <style>
      .cls-1 {
        stroke-linecap: round;
        stroke-linejoin: round;
      }

      .cls-1, .cls-2 {
        fill: none;
        stroke: #000;
        stroke-width: 21px;
      }

      .cls-2 {
        stroke-miterlimit: 10;
      }
    </style>
  </defs>
  <path class="cls-2" d="M644.251,239.478l116.2715,116.2715-143.9434,143.9395-116.2695-116.2686,143.9414-143.9424ZM500.3096,615.9604l-144.5606,144.5616-116.2715-116.2696,144.5606-144.5634,116.2715,116.2714Z"/>
  <line class="cls-2" x1="599.1709" y1="284.5591" x2="645.6504" y2="331.1909"/>
  <line class="cls-2" x1="546.6318" y1="336.9419" x2="619.0713" y2="409.3804"/>
  <line class="cls-2" x1="336.9404" y1="546.6323" x2="383.5732" y2="593.2661"/>
  <line class="cls-2" x1="284.5566" y1="599.1733" x2="331.1904" y2="645.6499"/>
  <path class="cls-1" d="M315.0225,430.6724l116.2705-116.2706,297.831,297.8262c20.2041,20.211,20.2041,53.3213,0,73.5254l-42.748,42.75c-20.3614,20.2041-53.3184,20.2041-73.5215,0l-297.832-297.831Z"/>
  <line class="cls-2" x1="591.8672" y1="707.5181" x2="708.1377" y2="591.2466"/>
  <polygon class="cls-1" points="315.0225 430.6724 431.293 314.4018 255.7998 256.2681 315.0225 430.6724"/>
</svg>