<?xml version="1.0" encoding="utf-8"?>
<!-- Generator: Adobe Illustrator 27.9.0, SVG Export Plug-In . SVG Version: 6.00 Build 0)  -->
<svg version="1.0" id="Layer_1" xmlns="http://www.w3.org/2000/svg" xmlns:xlink="http://www.w3.org/1999/xlink" x="0px" y="0px"
	 viewBox="0 0 64 64" style="enable-background:new 0 0 64 64;" xml:space="preserve">
<style type="text/css">
	.st0{fill:none;stroke:#231F20;stroke-width:2;stroke-linecap:round;stroke-linejoin:round;stroke-miterlimit:10;}
</style>
<g>
	<g>
		<path class="st0" d="M25.85,47.01l-0.39,10.6l-13.05-0.48c-2.88-0.11-5.43-1.93-6.46-4.62l-0.9-2.35
			c-0.97-2.54-0.89-5.35,0.22-7.83l2.74-6.12l-2.1-3.12l11.46-3.44L16.71,44.1l-2.44-2.76l-2.18,5.16L25.85,47.01z"/>
		<path class="st0" d="M12.08,46.5c0,0-4.87,10.4-0.16,10.59"/>
	</g>
	<g>
		<path class="st0" d="M43.84,34.45L53.47,30l5.49,11.85c1.21,2.62,0.74,5.71-1.19,7.85l-1.69,1.87c-1.82,2.01-4.37,3.22-7.08,3.36
			l-6.69,0.34l-1.83,3.28l-8.26-8.65l13.19-5.97l-1.35,3.43l5.59-0.4L43.84,34.45z"/>
		<path class="st0" d="M49.63,46.96c0,0,11.47-0.37,9.51-4.66"/>
	</g>
	<g>
		<path class="st0" d="M22.88,25l-8.31-6.58l8.11-10.24c1.79-2.26,4.76-3.24,7.55-2.47l2.43,0.67c2.62,0.72,4.84,2.45,6.19,4.81
			l3.31,5.83l3.75,0.15l-4,11.27l-11.27-9.09l3.67-0.33l-2.87-4.81L22.88,25z"/>
		<path class="st0" d="M31.44,14.2c0,0-5.5-10.08-8.44-6.39"/>
	</g>
</g>
</svg>
