<?xml version="1.0" encoding="utf-8"?>
<!-- Generator: Adobe Illustrator 25.4.1, SVG Export Plug-In . SVG Version: 6.00 Build 0)  -->
<svg version="1.1" id="Layer_1" xmlns="http://www.w3.org/2000/svg" xmlns:xlink="http://www.w3.org/1999/xlink" x="0px" y="0px"
	 viewBox="0 0 411 300" style="enable-background:new 0 0 411 300;" xml:space="preserve">
<style type="text/css">
	.st0{fill:#002896;}
	.st1{fill:#E8C80A;}
	.st2{fill:#0096E3;}
	.st3{fill:#FFFFFF;}
</style>
<rect class="st0" width="411" height="300"/>
<g>
	<path class="st1" d="M242.77,65.55c-3.57-1.18-6.47-4.08-7.53-7.96c-1.04-3.9,0.04-7.86,2.53-10.67
		c-3.67,0.77-7.65-0.29-10.49-3.14c-2.86-2.84-3.9-6.82-3.14-10.49c-2.8,2.49-6.77,3.57-10.67,2.53c-3.88-1.06-6.78-3.96-7.96-7.53
		c-1.18,3.57-4.08,6.47-7.96,7.53c-3.9,1.04-7.86-0.04-10.67-2.53c0.74,3.67-0.29,7.65-3.14,10.49c-2.84,2.84-6.82,3.9-10.49,3.14
		c2.49,2.8,3.57,6.77,2.53,10.67c-1.06,3.88-3.96,6.78-7.53,7.96c3.57,1.18,6.49,4.08,7.53,7.96c1.04,3.9-0.04,7.86-2.53,10.67
		c3.67-0.74,7.82,0.08,10.69,2.94c1.96,1.96,3.92,5.88,1.96,11.76c1.92-1.73,4.84-3.27,7.76-3.75h23.69
		c2.92,0.47,5.84,2.02,7.76,3.75c-1.96-5.88,0-9.8,1.96-11.76c2.84-2.86,7.02-3.69,10.69-2.94c-2.49-2.8-3.57-6.77-2.53-10.67
		C236.28,69.62,239.2,66.72,242.77,65.55z"/>
	<g>
		<path class="st2" d="M209.43,122.41h-7.84c-2.17,0-3.92-1.76-3.92-3.92v-3.92h15.69v3.92
			C213.35,120.65,211.6,122.41,209.43,122.41z"/>
		<rect x="193.74" y="100.84" class="st0" width="23.53" height="13.73"/>
		<path class="st3" d="M205.51,40.05c-14.07,0-25.49,11.41-25.49,25.49c0,8.48,5.1,15.29,8.5,18.69c5.1,5.1,5.23,9.28,5.23,12.68
			v3.92h23.53v-3.92c0-3.4,0.13-7.58,5.23-12.68c3.4-3.4,8.5-10.21,8.5-18.69C231,51.47,219.58,40.05,205.51,40.05z"/>
		<g>
			<rect x="191.78" y="98.88" class="st2" width="27.45" height="3.92"/>
			<rect x="191.78" y="106.72" class="st2" width="27.45" height="3.92"/>
		</g>
	</g>
	<g>
		<rect x="199.63" y="75.35" class="st2" width="3.92" height="25.49"/>
		<rect x="207.47" y="75.35" class="st2" width="3.92" height="25.49"/>
		<polygon class="st2" points="205.51,72.24 199.62,66.36 195.13,70.85 192.35,68.08 199.62,60.81 205.51,66.69 211.39,60.81 
			218.66,68.08 215.89,70.85 211.39,66.36 		"/>
	</g>
</g>
</svg>
