<?xml version="1.0" encoding="utf-8"?>
<!-- Generator: Adobe Illustrator 25.4.1, SVG Export Plug-In . SVG Version: 6.00 Build 0)  -->
<svg version="1.1" id="Layer_1" xmlns="http://www.w3.org/2000/svg" xmlns:xlink="http://www.w3.org/1999/xlink" x="0px" y="0px"
	 viewBox="0 0 411 300" style="enable-background:new 0 0 411 300;" xml:space="preserve">
<style type="text/css">
	.st0{fill:#002896;}
	.st1{fill:#FFFFFF;}
	.st2{fill:#0096E3;}
</style>
<rect class="st0" width="411" height="300"/>
<g>
	<path class="st1" d="M205.5,52.73c-33.41,0-45.39,30.59-45.39,30.59s11.98,30.59,45.39,30.59s45.39-30.59,45.39-30.59
		S238.91,52.73,205.5,52.73z"/>
	<circle class="st0" cx="205.5" cy="83.33" r="22.52"/>
	<path class="st2" d="M218.31,83.33c0,7.08-5.74,12.82-12.81,12.82s-12.81-5.74-12.81-12.82c0-1.18,0.16-2.32,0.46-3.4l12.36,3.4
		l-2.65-12.54c0.85-0.18,1.74-0.27,2.65-0.27C212.58,70.52,218.31,76.26,218.31,83.33z"/>
</g>
</svg>
